<svg width="32" height="32" xmlns="http://www.w3.org/2000/svg">
 <g id="Layer_1">
  <title>Layer 1</title>
  <ellipse stroke="#ffffff" ry="14.33141" rx="14.33141" id="svg_7" cy="15.80235" cx="16.14535" fill="#fcfcfc"/>
  <path stroke="#000" stroke-width="0.1" id="svg_5" d="m14.04956,24.56658l4.40653,0.00173l-0.14299,0.21727l-4.11885,-0.00519l-0.14468,-0.21381l0,0zm0.03028,-2.89016l4.34764,-0.00519l0.12617,0.22288l-4.60167,0.00173l0.12786,-0.21943zm-0.42906,1.44822l5.2024,-0.00519l-0.00672,0.22288l-5.19231,-0.00346l-0.00336,-0.21424zm5.2067,0.02067c0,1.47555 -1.16782,2.67592 -2.6035,2.67592c-1.43506,0 -2.60267,-1.20059 -2.60267,-2.67592c0,-1.47534 1.16781,-2.67571 2.60267,-2.67571c1.43568,-0.00022 2.6035,1.20037 2.6035,2.67571zm-2.6033,-2.89016c-1.54962,0 -2.81063,1.29641 -2.81063,2.88995c0,1.59376 1.26102,2.89016 2.81063,2.89016c1.55046,0 2.81127,-1.29641 2.81127,-2.89016c0,-1.59354 -1.2608,-2.88995 -2.81127,-2.88995zm0.78874,2.89016c0,1.57675 -0.41552,2.67592 -0.78874,2.67592c-0.3728,0 -0.78831,-1.09918 -0.78831,-2.67592c0,-1.57718 0.41531,-2.67571 0.78831,-2.67571c0.37301,-0.00022 0.78874,1.09853 0.78874,2.67571zm-0.78874,-2.89016c-0.64736,0 -0.9967,1.48911 -0.9967,2.88995c0,1.40126 0.34934,2.89016 0.9967,2.89016c0.64737,0 0.99734,-1.48912 0.99734,-2.89016c-0.00021,-1.40084 -0.34997,-2.88995 -0.99734,-2.88995zm1.84723,2.89016c0,1.47555 -0.82895,2.67592 -1.84723,2.67592c-1.01807,0 -1.8466,-1.20059 -1.8466,-2.67592c0,-1.47534 0.82853,-2.67571 1.8466,-2.67571c1.01828,-0.00022 1.84723,1.20037 1.84723,2.67571zm-1.84723,-2.89016c-1.13284,0 -2.05499,1.29641 -2.05499,2.88995c0,1.59376 0.92214,2.89016 2.05499,2.89016c1.13326,0 2.0552,-1.29641 2.0552,-2.89016c0,-1.59354 -0.92194,-2.88995 -2.0552,-2.88995z" fill="#000000"/>
  <path stroke="#000" id="svg_1" d="m16.23862,0.895c4.12883,0 7.47838,3.35277 7.47838,7.4816c0,4.12884 -3.34955,7.47838 -7.47838,7.47838c-4.12884,0 -7.47839,3.35278 -7.47839,7.48161c0,4.12884 3.34955,7.47838 7.47839,7.47838c8.25766,0 14.95998,-6.70232 14.95998,-14.95999c0,-8.25767 -6.70232,-14.95998 -14.95998,-14.95998l0,0zm0,5.1436c-1.29093,0 -2.33801,1.04708 -2.33801,2.338c0,1.29093 1.04708,2.338 2.33801,2.338c1.29092,0 2.338,-1.04707 2.338,-2.338c0,-1.29092 -1.04708,-2.338 -2.338,-2.338zm14.62444,9.82592c0,8.25153 -6.68919,14.94072 -14.94073,14.94072c-8.25153,0 -14.94072,-6.68919 -14.94072,-14.94072c0,-8.25154 6.68919,-14.94073 14.94072,-14.94073c8.25154,0 14.94073,6.68919 14.94073,14.94073z" fill="#000000"/>
 </g>
</svg>